<svg width="59" height="59" viewBox="0 0 59 59" fill="none" xmlns="http://www.w3.org/2000/svg">
<path d="M1.49302 22.458C1.01707 24.3142 0.898072 26.218 1.11225 28.0742C1.32643 29.9543 1.8738 31.7867 2.73051 33.4763C3.77761 35.4991 5.22927 37.2364 6.9665 38.6166C8.70373 39.9969 10.7503 40.9726 12.9635 41.52L14.3676 35.6181C13.0111 35.2849 11.7736 34.69 10.7027 33.8333C9.63183 33.0004 8.75132 31.9295 8.10878 30.692C7.56144 29.6449 7.22827 28.5264 7.10928 27.3841C6.99029 26.2418 7.0617 25.0757 7.34727 23.9335L1.49302 22.458Z" fill="#3761AB"/>
<path d="M31.8114 29.7161C31.4068 31.5723 30.6453 33.3334 29.5982 34.904C28.5511 36.4747 27.2422 37.8549 25.6954 38.9734V38.9972C23.8629 40.3299 21.7688 41.2342 19.5794 41.6626C17.4138 42.0909 15.1292 42.0671 12.916 41.5198L14.3201 35.6179C15.6765 35.9511 17.0568 35.9511 18.3895 35.6893C19.7222 35.4275 21.0072 34.8802 22.1257 34.0711C23.0776 33.381 23.8867 32.5481 24.5055 31.5961C25.148 30.6442 25.6002 29.5495 25.862 28.4072L31.8114 29.7161Z" fill="#3761AB"/>
<path d="M25.8613 28.5742C26.2659 26.718 27.0036 24.957 28.0269 23.3863C29.0502 21.8157 30.3591 20.4116 31.9059 19.2931V19.2693C33.7384 17.9367 35.8325 17.0324 37.9981 16.5802C40.1637 16.1518 42.4483 16.1756 44.6615 16.6754L43.3288 22.4106C41.9724 22.1013 40.5445 22.244 39.2118 22.5058C37.8792 22.7676 36.5941 23.3387 35.4756 24.1479C34.5237 24.838 33.7146 25.6947 33.0958 26.6466C32.4771 27.5985 32.0011 28.6932 31.7631 29.8355L25.8613 28.5742Z" fill="#3761AB"/>
<path d="M57.3456 33.4046C57.2028 35.3084 56.7269 37.1408 55.9415 38.8542C55.1562 40.5676 54.0615 42.1383 52.7051 43.471V43.4948C51.0868 45.0892 49.1354 46.2791 47.065 47.0406C44.9708 47.7784 42.7338 48.0877 40.4492 47.8973L40.9728 41.8527C42.353 41.9717 43.7333 41.7814 45.0184 41.3292C46.3035 40.877 47.4696 40.1393 48.4691 39.1636C49.302 38.3307 49.9683 37.3788 50.4681 36.3555C50.944 35.3084 51.2534 34.1661 51.3248 33L57.3456 33.4046Z" fill="#3761AB"/>
<path d="M57.2506 34.0721C57.5124 32.192 57.4409 30.2882 57.0364 28.432C56.6318 26.5996 55.8941 24.8385 54.847 23.2441C53.5857 21.3403 51.9675 19.7696 50.0637 18.5797C48.1836 17.4137 46.0419 16.6283 43.7811 16.3428L43.0195 22.3636C44.3998 22.5302 45.7087 23.0061 46.851 23.7438C47.9933 24.4578 48.9928 25.4335 49.7781 26.5996C50.4206 27.5753 50.8728 28.6462 51.1346 29.7647C51.3963 30.8832 51.4439 32.0492 51.2773 33.2153L57.2506 34.0721Z" fill="#3761AB"/>
<path d="M29.7401 25.6943C31.5964 26.0989 33.3574 26.8366 34.9281 27.8599C36.4987 28.8832 37.9028 30.1921 39.0213 31.739C40.3539 33.5714 41.2583 35.6656 41.7104 37.8312C42.1626 39.9968 42.115 42.2814 41.6152 44.4945L35.8799 43.1618C36.1893 41.8054 36.0465 40.3775 35.7848 39.0448C35.523 37.7122 34.9518 36.4271 34.1427 35.3086C33.4526 34.3567 32.5959 33.5476 31.644 32.9289C30.6683 32.3101 29.5974 31.858 28.4551 31.5962L29.7401 25.6943Z" fill="#3761AB"/>
<path d="M35.1904 1.20703C37.0704 1.5402 38.8553 2.23032 40.4735 3.18223C42.0917 4.15793 43.5196 5.41921 44.7095 6.91847C46.1136 8.70329 47.0893 10.7499 47.6128 12.9155C48.1364 15.0811 48.184 17.3419 47.7556 19.5788L41.8062 18.4128C42.0679 17.0563 42.0442 15.6522 41.711 14.3434C41.4016 13.0345 40.7829 11.7732 39.9262 10.6785C39.1884 9.7504 38.3317 8.98887 37.3322 8.39393C36.3565 7.79899 35.2618 7.39442 34.0957 7.18024L35.1904 1.20703Z" fill="#3761AB"/>
<path d="M24.9106 57.1784C23.0068 57.0356 21.1506 56.5596 19.4609 55.7743C17.7475 54.9889 16.1768 53.8943 14.8442 52.514C13.2497 50.8958 12.0598 48.9443 11.2983 46.8501C10.5606 44.7559 10.2512 42.519 10.4416 40.2344L16.4862 40.7579C16.3672 42.1382 16.5576 43.5185 17.0098 44.8035C17.4619 46.0886 18.1997 47.2547 19.1754 48.2542C20.0083 49.0871 20.9602 49.7535 21.9835 50.2532C23.0306 50.7292 24.1729 51.0385 25.339 51.1099L24.9106 57.1784Z" fill="#3761AB"/>
<path d="M24.2441 57.0836C26.1242 57.3453 28.028 57.2739 29.8842 56.8694C31.7166 56.4648 33.4777 55.7271 35.0721 54.68C36.9759 53.4187 38.5466 51.8005 39.7365 49.8966C40.9026 48.0166 41.6879 45.8748 41.9735 43.614L35.9526 42.8525C35.786 44.2328 35.3101 45.5417 34.5724 46.684C33.8584 47.8263 32.8827 48.8258 31.7166 49.6111C30.7409 50.2536 29.67 50.7058 28.5515 50.9676C27.433 51.2293 26.2669 51.2769 25.1009 51.1103L24.2441 57.0836Z" fill="#3761AB"/>
<path d="M28.5987 31.644C26.7425 31.2395 24.9815 30.4779 23.4108 29.4546C21.8402 28.4075 20.4599 27.0987 19.3414 25.5518C18.0087 23.6956 17.1044 21.6252 16.6761 19.4358C16.2477 17.2702 16.2715 14.9856 16.8189 12.7725L22.7207 14.1765C22.3875 15.533 22.3875 16.9132 22.6493 18.2459C22.9111 19.5786 23.4584 20.8637 24.2675 21.9822C24.9577 22.9341 25.7906 23.7432 26.7425 24.3619C27.6944 25.0045 28.7891 25.4566 29.9314 25.7184L28.5987 31.644Z" fill="#3761AB"/>
<path d="M1.37305 23.1242C1.70621 21.2442 2.39635 19.4594 3.34826 17.8411C4.32397 16.2229 5.58526 14.795 7.08452 13.6051V13.5813C8.86934 12.1773 10.9159 11.2016 13.0815 10.678C15.2471 10.1545 17.5079 10.1069 19.7449 10.5352L18.5788 16.4847C17.2223 16.2229 15.8183 16.2467 14.5094 16.5799C13.1767 16.8892 11.9393 17.508 10.8446 18.3647C9.91645 19.1024 9.1549 19.9591 8.55996 20.9586C7.96502 21.9343 7.56047 23.029 7.34629 24.1951L1.37305 23.1242Z" fill="#3761AB"/>
<path d="M35.8569 1.32602C34.0006 0.850063 32.0968 0.731084 30.2406 0.945264C28.3606 1.15944 26.5282 1.70679 24.8385 2.56351C22.8157 3.61061 21.0785 5.06226 19.6982 6.7995C18.318 8.53673 17.3423 10.5833 16.7949 12.7965L22.6967 14.2006C23.0299 12.8441 23.6249 11.6066 24.4816 10.5357C25.3145 9.46484 26.3854 8.58431 27.6228 7.94177C28.6699 7.39443 29.7884 7.06126 30.9307 6.94228C32.073 6.82329 33.2391 6.89468 34.3814 7.18025L35.8569 1.32602Z" fill="#3761AB"/>
<path d="M13.081 2.75343C11.439 3.72913 10.0111 4.99042 8.82123 6.44208C7.65515 7.89374 6.77463 9.53579 6.17969 11.3206C7.89312 10.0355 9.82073 9.13122 11.8673 8.65526C13.6284 8.22691 16.4127 8.10791 16.4127 8.10791C16.4127 8.10791 17.436 6.06132 18.4593 4.75244C19.8396 2.99141 21.5768 1.53976 23.5996 0.516456L23.671 0.492653L23.2426 0.445065C21.3626 0.230886 19.435 0.34986 17.6264 0.802016C16.0319 1.20658 14.4851 1.87291 13.081 2.75343Z" fill="#3761AB"/>
<path d="M56.5848 12.8678C55.6091 11.2257 54.3478 9.79787 52.8961 8.63178C51.4445 7.46569 49.8024 6.58518 48.0176 5.99023C49.3027 7.70367 50.207 9.63128 50.6829 11.6779C51.1113 13.4389 51.2303 16.2233 51.2303 16.2233C51.2303 16.2233 53.2769 17.2466 54.5857 18.2699C56.3468 19.6501 57.7984 21.3873 58.8217 23.4102L58.8455 23.4816L58.8931 23.0532C59.1073 21.1732 58.9883 19.2456 58.5362 17.4369C58.1078 15.8425 57.4653 14.2956 56.5848 12.8678Z" fill="#3761AB"/>
<path d="M2.94484 45.8038C3.92055 47.4459 5.18183 48.8738 6.63349 50.0636C8.08515 51.2297 9.7272 52.1102 11.512 52.7052C10.227 50.9918 9.32262 49.0641 8.84666 47.0175C8.4183 45.2565 8.29932 42.4722 8.29932 42.4722C8.29932 42.4722 6.25271 41.4489 4.94384 40.4256C3.18281 39.0453 1.73115 37.3081 0.707853 35.2853L0.684068 35.2139L0.636463 35.6422C0.422284 37.5223 0.541294 39.4499 0.99345 41.2585C1.42181 42.8292 2.06433 44.376 2.94484 45.8038Z" fill="#3761AB"/>
<path d="M45.5665 55.7752C47.2086 54.7995 48.6364 53.5382 49.8263 52.0865C50.9924 50.6348 51.8729 48.9928 52.4678 47.208C50.7544 48.4931 48.8268 49.3974 46.7802 49.8733C45.0192 50.3017 42.2348 50.4207 42.2348 50.4207C42.2348 50.4207 41.2116 52.4673 40.1883 53.7762C38.808 55.5134 37.0708 56.9888 35.048 58.0121L34.9766 58.0359L35.4049 58.0835C37.2849 58.2977 39.2125 58.1787 41.0212 57.7266C42.5918 57.322 44.1387 56.6795 45.5665 55.7752Z" fill="#3761AB"/>
</svg>
