<svg width="345" height="61" viewBox="0 0 345 61" fill="none" xmlns="http://www.w3.org/2000/svg">
<path d="M50.0481 25.2169C48.8311 25.2169 47.6925 24.988 46.6321 24.5301C45.5717 24.0601 44.6499 23.4275 43.8667 22.6323C43.0835 21.837 42.463 20.9092 42.0051 19.8488C41.5472 18.7764 41.3183 17.6317 41.3183 16.4147C41.3183 15.1857 41.5472 14.0349 42.0051 12.9625C42.463 11.8901 43.0835 10.9563 43.8667 10.161C44.6499 9.3537 45.5717 8.7211 46.6321 8.26322C47.6925 7.79328 48.8311 7.55832 50.0481 7.55832C51.2772 7.55832 52.4219 7.79328 53.4822 8.26322C54.5426 8.7211 55.4644 9.34767 56.2476 10.1429C57.0308 10.9382 57.6454 11.8781 58.0912 12.9625C58.5491 14.0349 58.778 15.1857 58.778 16.4147V23.8432C58.778 24.1927 58.6575 24.4879 58.4165 24.7289C58.1755 24.9699 57.8803 25.0904 57.5309 25.0904C57.1694 25.0904 56.8802 24.9699 56.6633 24.7289C56.4585 24.4879 56.3561 24.1927 56.3561 23.8432L56.338 22.5419C55.5427 23.3733 54.6089 24.03 53.5365 24.512C52.4761 24.9819 51.3133 25.2169 50.0481 25.2169ZM50.0481 22.813C50.9518 22.813 51.7893 22.6443 52.5605 22.3069C53.3316 21.9695 53.9944 21.5117 54.5486 20.9333C55.115 20.3429 55.5548 19.6621 55.8681 18.8909C56.1934 18.1077 56.3561 17.2823 56.3561 16.4147C56.3561 15.5351 56.1934 14.7037 55.8681 13.9205C55.5548 13.1372 55.115 12.4564 54.5486 11.8781C53.9944 11.2997 53.3316 10.8418 52.5605 10.5044C51.7893 10.167 50.9518 9.99835 50.0481 9.99835C49.1565 9.99835 48.3251 10.167 47.5539 10.5044C46.7948 10.8418 46.132 11.2997 45.5657 11.8781C44.9994 12.4564 44.5536 13.1372 44.2282 13.9205C43.9029 14.7037 43.7402 15.5351 43.7402 16.4147C43.7402 17.2823 43.9029 18.1077 44.2282 18.8909C44.5536 19.6621 44.9994 20.3429 45.5657 20.9333C46.132 21.5117 46.7948 21.9695 47.5539 22.3069C48.3251 22.6443 49.1565 22.813 50.0481 22.813ZM62.1037 8.7693C62.1037 8.41986 62.2182 8.13067 62.4471 7.90173C62.6881 7.67279 62.9712 7.55832 63.2966 7.55832C63.634 7.55832 63.9171 7.67279 64.1461 7.90173C64.3871 8.13067 64.5076 8.41986 64.5076 8.7693V16.7581C64.5076 17.5895 64.6582 18.3728 64.9594 19.1078C65.2607 19.8428 65.6703 20.4875 66.1885 21.0417C66.7186 21.584 67.3392 22.0177 68.0501 22.3431C68.7731 22.6564 69.5503 22.813 70.3817 22.813C71.2131 22.813 71.9722 22.6564 72.6591 22.3431C73.3459 22.0177 73.9303 21.5779 74.4123 21.0237C74.9063 20.4694 75.2859 19.8247 75.5509 19.0897C75.8281 18.3547 75.9667 17.5715 75.9667 16.7401V8.7693C75.9667 8.41986 76.0871 8.13067 76.3281 7.90173C76.5691 7.66074 76.8583 7.54024 77.1957 7.54024C77.5331 7.54024 77.8163 7.66074 78.0452 7.90173C78.2741 8.13067 78.3886 8.41986 78.3886 8.7693V16.7943C78.3886 17.951 78.1898 19.0415 77.7922 20.0657C77.3945 21.0899 76.8342 21.9876 76.1112 22.7588C75.4003 23.5179 74.5569 24.1204 73.5808 24.5662C72.6048 25 71.5385 25.2169 70.3817 25.2169C69.2008 25.2169 68.1043 24.994 67.0922 24.5481C66.0921 24.1023 65.2185 23.4998 64.4714 22.7407C63.7364 21.9695 63.158 21.0719 62.7363 20.0476C62.3145 19.0234 62.1037 17.9269 62.1037 16.7581V8.7693ZM81.6239 3.58198C81.6239 3.24459 81.7444 2.9554 81.9854 2.71441C82.2264 2.47342 82.5095 2.35293 82.8349 2.35293C83.1723 2.35293 83.4615 2.47342 83.7024 2.71441C83.9555 2.94335 84.082 3.23254 84.082 3.58198V7.72099H92.0528C92.3902 7.72099 92.6793 7.84148 92.9203 8.08247C93.1613 8.32346 93.2818 8.61265 93.2818 8.95004C93.2818 9.26333 93.1613 9.53444 92.9203 9.76338C92.6914 9.99232 92.4022 10.1068 92.0528 10.1068H84.082V16.5955C84.082 17.4751 84.2447 18.2944 84.57 19.0536C84.9074 19.8127 85.3653 20.4754 85.9437 21.0417C86.522 21.596 87.1968 22.0358 87.968 22.3612C88.7512 22.6744 89.5947 22.8311 90.4984 22.8311C91.2936 22.8311 92.0347 22.7106 92.7215 22.4696C93.4083 22.2286 94.059 21.837 94.6735 21.2948C94.8061 21.1863 94.9446 21.096 95.0892 21.0237C95.2338 20.9393 95.4086 20.8971 95.6134 20.8971C95.8905 20.8971 96.1376 21.0116 96.3544 21.2405C96.5713 21.4574 96.6798 21.7225 96.6798 22.0358C96.6798 22.2166 96.6376 22.3973 96.5533 22.578C96.481 22.7588 96.3725 22.9154 96.2279 23.048C95.4688 23.7709 94.6012 24.3192 93.6252 24.6927C92.6613 25.0542 91.619 25.235 90.4984 25.235C89.2693 25.235 88.1126 25.0181 87.0281 24.5843C85.9557 24.1385 85.0158 23.53 84.2085 22.7588C83.4133 21.9756 82.7807 21.0598 82.3107 20.0115C81.8528 18.9511 81.6239 17.8064 81.6239 16.5774V3.58198Z" fill="#FCFCFF"/>
<path d="M100.973 16.4147C100.973 17.2823 101.141 18.1077 101.479 18.8909C101.816 19.6621 102.274 20.3429 102.852 20.9333C103.431 21.5117 104.105 21.9695 104.877 22.3069C105.66 22.6443 106.497 22.813 107.389 22.813C108.293 22.813 109.136 22.6443 109.919 22.3069C110.703 21.9695 111.377 21.5117 111.944 20.9333C112.522 20.3429 112.974 19.6621 113.299 18.8909C113.637 18.1077 113.805 17.2823 113.805 16.4147C113.805 15.5351 113.637 14.7037 113.299 13.9205C112.974 13.1372 112.522 12.4564 111.944 11.8781C111.377 11.2997 110.703 10.8418 109.919 10.5044C109.136 10.167 108.293 9.99835 107.389 9.99835C106.497 9.99835 105.66 10.167 104.877 10.5044C104.105 10.8418 103.431 11.2997 102.852 11.8781C102.274 12.4564 101.816 13.1372 101.479 13.9205C101.141 14.7037 100.973 15.5351 100.973 16.4147ZM98.5687 16.4147C98.5687 15.1857 98.7976 14.0349 99.2555 12.9625C99.7255 11.8781 100.358 10.9382 101.153 10.1429C101.961 9.34767 102.894 8.7211 103.955 8.26322C105.027 7.79328 106.172 7.55832 107.389 7.55832C108.618 7.55832 109.769 7.79328 110.841 8.26322C111.914 8.7211 112.847 9.3537 113.643 10.161C114.438 10.9563 115.065 11.8901 115.522 12.9625C115.98 14.0349 116.209 15.1857 116.209 16.4147C116.209 17.6317 115.98 18.7764 115.522 19.8488C115.065 20.9092 114.438 21.837 113.643 22.6323C112.847 23.4275 111.914 24.0601 110.841 24.5301C109.769 24.988 108.618 25.2169 107.389 25.2169C106.172 25.2169 105.027 24.988 103.955 24.5301C102.894 24.0601 101.961 23.4275 101.153 22.6323C100.358 21.837 99.7255 20.9092 99.2555 19.8488C98.7976 18.7764 98.5687 17.6317 98.5687 16.4147ZM126.819 22.5961C127.156 22.5961 127.488 22.5359 127.813 22.4154C128.15 22.2828 128.452 22.0961 128.717 21.8551C128.982 21.6141 129.193 21.3309 129.349 21.0056C129.518 20.6682 129.602 20.2886 129.602 19.8669C129.602 19.4572 129.524 19.0957 129.367 18.7824C129.211 18.4692 129 18.2041 128.735 17.9872C128.482 17.7703 128.186 17.6076 127.849 17.4992C127.512 17.3787 127.162 17.3124 126.801 17.3004H123.24C122.553 17.3004 121.909 17.1678 121.306 16.9027C120.716 16.6376 120.204 16.2822 119.77 15.8363C119.336 15.3785 118.993 14.8543 118.74 14.2639C118.499 13.6614 118.378 13.0228 118.378 12.348C118.378 11.6853 118.505 11.0647 118.758 10.4864C119.011 9.90797 119.354 9.4019 119.788 8.96811C120.234 8.53433 120.752 8.19092 121.342 7.93788C121.933 7.68484 122.565 7.55832 123.24 7.55832H129.837C130.175 7.55832 130.458 7.66074 130.687 7.86558C130.928 8.07042 131.048 8.35961 131.048 8.73315C131.048 9.11873 130.928 9.42599 130.687 9.65493C130.458 9.87183 130.175 9.98027 129.837 9.98027H123.222C122.873 9.98027 122.547 10.0526 122.246 10.1972C121.957 10.3297 121.704 10.5105 121.487 10.7394C121.27 10.9563 121.095 11.2153 120.963 11.5166C120.842 11.8058 120.782 12.107 120.782 12.4203C120.782 12.7577 120.842 13.077 120.963 13.3782C121.095 13.6674 121.27 13.9265 121.487 14.1554C121.716 14.3723 121.975 14.547 122.264 14.6796C122.565 14.8121 122.885 14.8784 123.222 14.8784H127C127.71 14.8784 128.367 15.0109 128.97 15.276C129.584 15.5411 130.114 15.9086 130.56 16.3786C131.018 16.8364 131.374 17.3727 131.627 17.9872C131.88 18.5897 132.006 19.2343 132.006 19.9211C132.006 20.6079 131.88 21.2586 131.627 21.8731C131.374 22.4877 131.024 23.0299 130.578 23.4998C130.144 23.9577 129.62 24.3252 129.006 24.6024C128.403 24.8675 127.747 25 127.036 25H119.173C118.848 25 118.577 24.8855 118.36 24.6566C118.155 24.4276 118.053 24.1324 118.053 23.7709C118.053 23.4215 118.155 23.1383 118.36 22.9215C118.577 22.7046 118.848 22.5961 119.173 22.5961H126.819ZM136.416 17.4992C136.513 18.2583 136.736 18.9692 137.085 19.6319C137.446 20.2826 137.904 20.855 138.459 21.349C139.013 21.831 139.639 22.2105 140.338 22.4877C141.049 22.7648 141.796 22.9034 142.58 22.9034C142.941 22.9034 143.26 22.8913 143.538 22.8672C143.827 22.8311 144.092 22.7829 144.333 22.7226C144.586 22.6503 144.827 22.56 145.056 22.4515C145.297 22.3431 145.544 22.2166 145.797 22.072C145.929 21.9876 146.056 21.9334 146.176 21.9093C146.309 21.8731 146.429 21.8551 146.538 21.8551C146.875 21.8551 147.152 21.9876 147.369 22.2527C147.598 22.5178 147.713 22.807 147.713 23.1203C147.713 23.301 147.664 23.4818 147.568 23.6625C147.484 23.8312 147.339 23.9758 147.134 24.0963C146.821 24.277 146.502 24.4397 146.176 24.5843C145.863 24.7289 145.526 24.8494 145.164 24.9458C144.803 25.0301 144.411 25.0964 143.989 25.1446C143.568 25.1928 143.098 25.2169 142.58 25.2169C141.363 25.2169 140.218 24.988 139.145 24.5301C138.073 24.0601 137.133 23.4275 136.326 22.6323C135.531 21.837 134.898 20.9032 134.428 19.8308C133.97 18.7583 133.741 17.6136 133.741 16.3966C133.741 15.1796 133.97 14.0349 134.428 12.9625C134.898 11.8901 135.531 10.9563 136.326 10.161C137.133 9.3537 138.073 8.7211 139.145 8.26322C140.218 7.79328 141.363 7.55832 142.58 7.55832C143.785 7.55832 144.923 7.79328 145.996 8.26322C147.068 8.7211 148.002 9.34767 148.797 10.1429C149.604 10.9382 150.243 11.872 150.713 12.9445C151.183 14.0048 151.424 15.1375 151.436 16.3424C151.436 16.6678 151.328 16.9449 151.111 17.1738C150.894 17.3907 150.611 17.4992 150.261 17.4992H136.416ZM148.978 15.4749C148.881 14.6796 148.653 13.9446 148.291 13.2698C147.93 12.583 147.466 11.9925 146.899 11.4985C146.333 10.9924 145.682 10.5948 144.947 10.3056C144.224 10.0164 143.447 9.87183 142.616 9.87183C141.784 9.87183 141.001 10.0224 140.266 10.3237C139.543 10.6129 138.904 11.0105 138.35 11.5166C137.796 12.0227 137.344 12.6191 136.995 13.3059C136.645 13.9807 136.428 14.7037 136.344 15.4749H148.978ZM153.822 16.7762C153.822 15.511 154.063 14.3241 154.545 13.2156C155.027 12.095 155.683 11.119 156.515 10.2875C157.346 9.44407 158.316 8.78134 159.425 8.29936C160.533 7.80533 161.714 7.55832 162.967 7.55832H163.112C163.498 7.55832 163.799 7.67279 164.016 7.90173C164.245 8.13067 164.359 8.41986 164.359 8.7693C164.359 9.11873 164.239 9.40792 163.998 9.63686C163.757 9.85375 163.461 9.9622 163.112 9.9622H162.967C162.052 9.9622 161.184 10.1429 160.365 10.5044C159.557 10.8539 158.846 11.3358 158.232 11.9504C157.617 12.5649 157.129 13.2879 156.768 14.1193C156.406 14.9507 156.226 15.8363 156.226 16.7762V23.789C156.226 24.1385 156.111 24.4276 155.882 24.6566C155.665 24.8855 155.394 25 155.069 25C154.732 25 154.436 24.8855 154.183 24.6566C153.942 24.4276 153.822 24.1385 153.822 23.789V16.7762ZM165.642 9.31152C165.558 9.14283 165.516 8.96811 165.516 8.78737C165.516 8.48613 165.624 8.21502 165.841 7.97403C166.07 7.72099 166.371 7.59447 166.745 7.59447C166.974 7.59447 167.185 7.66074 167.377 7.79328C167.57 7.91378 167.721 8.09452 167.829 8.33551L173.017 21.0237L178.186 8.33551C178.282 8.09452 178.427 7.91378 178.62 7.79328C178.825 7.66074 179.041 7.59447 179.27 7.59447C179.632 7.59447 179.927 7.72099 180.156 7.97403C180.385 8.21502 180.499 8.48613 180.499 8.78737C180.499 8.95606 180.463 9.13078 180.391 9.31152L174.119 24.3855C173.987 24.6024 173.842 24.7831 173.685 24.9277C173.529 25.0602 173.3 25.1265 172.999 25.1265C172.758 25.1265 172.535 25.0602 172.33 24.9277C172.137 24.7831 171.992 24.6024 171.896 24.3855L165.642 9.31152Z" fill="#FCFCFF"/>
<path d="M0.553968 12.1816C0.304521 13.1542 0.231178 14.1558 0.348564 15.1284C0.465951 16.1155 0.744739 17.0736 1.21429 17.9591C1.77187 19.0187 2.53485 19.9333 3.47395 20.6591C4.39837 21.3849 5.48422 21.9075 6.65808 22.1833L7.40644 19.0768C6.68744 18.9026 6.02712 18.5833 5.45486 18.1478C4.8826 17.7123 4.41305 17.1462 4.07556 16.4929C3.79677 15.9413 3.60604 15.3607 3.54734 14.7655C3.47398 14.1704 3.51799 13.5462 3.6794 12.951L0.553968 12.1816Z" fill="#FCFCFF"/>
<path d="M16.6508 15.9994C16.4307 16.9719 16.0345 17.901 15.4769 18.7284C14.9193 19.5558 14.2297 20.2816 13.408 20.8623C12.4249 21.559 11.3243 22.0381 10.1651 22.2558C9.00595 22.4881 7.80277 22.4591 6.62891 22.1832L7.37722 19.0768C8.09621 19.251 8.82989 19.251 9.54889 19.1203C10.2532 18.9752 10.9429 18.6994 11.5298 18.2639C12.0287 17.901 12.4689 17.4655 12.7917 16.9574C13.1292 16.4494 13.3786 15.8832 13.5107 15.2881L16.6508 15.9994Z" fill="#FCFCFF"/>
<path d="M13.4961 15.405C13.7162 14.4324 14.1124 13.5034 14.6553 12.676C15.1982 11.8485 15.9025 11.1082 16.7096 10.5276C17.6927 9.81627 18.7932 9.35175 19.9524 9.1195C21.1116 8.88724 22.3148 8.90175 23.4886 9.17756L22.755 12.284C22.036 12.1243 21.3023 12.1098 20.5833 12.255C19.879 12.4001 19.204 12.6905 18.6024 13.1259C18.1035 13.4889 17.678 13.9388 17.3405 14.4324C17.003 14.9405 16.7682 15.5066 16.6362 16.1163L13.4961 15.405Z" fill="#FCFCFF"/>
<path d="M30.2243 17.9452C30.1509 18.9468 29.9014 19.9193 29.4759 20.8048C29.0504 21.7048 28.4781 22.5322 27.7445 23.229C26.8787 24.071 25.8516 24.6952 24.7364 25.0871C23.6213 25.479 22.4327 25.6387 21.2295 25.5371L21.5083 22.358C22.242 22.4161 22.9756 22.329 23.6506 22.0822C24.3256 21.8355 24.9565 21.458 25.4848 20.95C25.925 20.5145 26.2918 20.0209 26.5412 19.4693C26.7907 18.9177 26.9521 18.3226 26.9961 17.7129L30.2243 17.9452Z" fill="#FCFCFF"/>
<path d="M30.1642 18.2931C30.311 17.306 30.267 16.3044 30.0469 15.3318C29.8268 14.3593 29.4305 13.4447 28.873 12.6028C28.2127 11.6012 27.3323 10.7738 26.3345 10.1641C25.3367 9.55441 24.1922 9.14796 23.0036 8.98828L22.5928 12.1528C23.3264 12.2399 24.0161 12.5012 24.6324 12.8786C25.2487 13.256 25.7769 13.7641 26.1878 14.3738C26.5252 14.8963 26.7747 15.4479 26.9067 16.0431C27.0388 16.6383 27.0682 17.2479 26.9801 17.8576L30.1642 18.2931Z" fill="#FCFCFF"/>
<path d="M15.5647 13.8945C16.5478 14.1123 17.4869 14.5042 18.3233 15.0413C19.1597 15.5784 19.908 16.2752 20.4949 17.0736C21.2139 18.0461 21.6835 19.1349 21.9183 20.2816C22.153 21.4284 22.1384 22.6187 21.8596 23.78L18.7195 23.0542C18.8809 22.3429 18.8956 21.6171 18.7488 20.9058C18.6021 20.209 18.3086 19.5413 17.8684 18.9461C17.5016 18.4526 17.0467 18.0316 16.5478 17.6977C16.0342 17.3639 15.462 17.1316 14.8457 17.001L15.5647 13.8945Z" fill="#FCFCFF"/>
<path d="M18.4404 1.01953C19.4382 1.19372 20.392 1.55662 21.243 2.06468C22.1087 2.57275 22.8718 3.2405 23.488 4.02437C24.2364 4.96792 24.7499 6.04211 25.0287 7.17437C25.3075 8.30662 25.3369 9.49694 25.1021 10.6727L21.9473 10.0631C22.094 9.35178 22.0647 8.61147 21.9033 7.91469C21.7272 7.21792 21.4191 6.56469 20.9642 5.98405C20.5827 5.50501 20.1132 5.09856 19.5996 4.7792C19.0714 4.47436 18.4991 4.25662 17.8828 4.14049L18.4404 1.01953Z" fill="#FCFCFF"/>
<path d="M12.9973 30.4433C11.9849 30.3707 11.0017 30.1239 10.1067 29.703C9.19692 29.282 8.36052 28.7159 7.6562 27.9901C6.80515 27.1336 6.1742 26.1175 5.77802 25.0143C5.38184 23.9111 5.22043 22.7352 5.32315 21.5449L8.53661 21.8207C8.47792 22.5465 8.56596 23.2723 8.81541 23.9401C9.06486 24.6078 9.44636 25.232 9.95993 25.7546C10.4001 26.1901 10.899 26.553 11.4566 26.7998C12.0142 27.0465 12.6158 27.2062 13.2321 27.2498L12.9973 30.4433Z" fill="#FCFCFF"/>
<path d="M12.6299 30.3858C13.6277 30.531 14.6401 30.4874 15.6232 30.2697C16.6063 30.052 17.5308 29.66 18.3818 29.1084C19.3943 28.4552 20.2306 27.5842 20.8469 26.5971C21.4632 25.61 21.8741 24.4778 22.0355 23.302L18.8367 22.8955C18.7486 23.6213 18.4845 24.3036 18.103 24.9132C17.7215 25.5229 17.2079 26.0455 16.5917 26.452C16.0634 26.7858 15.5058 27.0326 14.9042 27.1633C14.3026 27.2939 13.6863 27.3229 13.0701 27.2358L12.6299 30.3858Z" fill="#FCFCFF"/>
<path d="M14.9488 17.0161C13.9657 16.7984 13.0266 16.4064 12.1902 15.8548C11.3539 15.3032 10.6202 14.6209 10.0333 13.808C9.32894 12.8354 8.84473 11.7467 8.62463 10.6C8.38986 9.45318 8.41919 8.26285 8.69798 7.10156L11.8381 7.84189C11.662 8.55318 11.662 9.27899 11.7941 9.99028C11.9408 10.6871 12.2196 11.3548 12.6598 11.95C13.0266 12.4435 13.4668 12.879 13.9804 13.1983C14.494 13.5322 15.0662 13.779 15.6678 13.9096L14.9488 17.0161Z" fill="#FCFCFF"/>
<path d="M0.480469 12.5453C0.656549 11.5582 1.02338 10.6146 1.53695 9.77271C2.05052 8.91626 2.72546 8.16142 3.51782 7.55175C4.47158 6.81142 5.55743 6.30336 6.70195 6.02755C7.84647 5.75174 9.04969 5.72271 10.2382 5.95496L9.62193 9.07593C8.90294 8.93077 8.15463 8.9598 7.45031 9.11948C6.74599 9.29367 6.08566 9.59851 5.49873 10.0485C5.01451 10.4259 4.60367 10.8904 4.28086 11.3985C3.97272 11.9211 3.75262 12.4872 3.63523 13.0969L0.480469 12.5453Z" fill="#FCFCFF"/>
<path d="M18.8082 1.09221C17.8251 0.84544 16.8126 0.772861 15.8295 0.88899C14.8317 1.00512 13.8633 1.28093 12.9682 1.74545C11.897 2.29706 10.9726 3.05189 10.239 3.98092C9.5053 4.89544 8.97704 5.96964 8.69824 7.13093L11.8384 7.87124C12.0144 7.15995 12.3372 6.50674 12.7774 5.94061C13.2176 5.37448 13.7899 4.90996 14.4502 4.57609C15.0078 4.30028 15.5947 4.11157 16.1963 4.05351C16.798 3.98093 17.4289 4.02448 18.0305 4.18416L18.8082 1.09221Z" fill="#FCFCFF"/>
<path d="M23.914 29.7323C24.7797 29.2242 25.5427 28.5565 26.1736 27.7871C26.7899 27.0178 27.2595 26.1613 27.5676 25.2178C26.6579 25.8855 25.6307 26.3645 24.5449 26.6258C23.8846 26.7855 23.195 26.8581 22.4906 26.8581C22.4173 26.9017 22.3439 26.9597 22.2705 27.0033L23.914 29.7323Z" fill="#FCFCFF"/>
<path d="M24.222 29.5288C23.3856 30.0949 22.4612 30.5159 21.4928 30.7481C20.5243 30.9949 19.5119 31.053 18.4994 30.9368L18.2793 30.9078L18.3087 30.8933C19.3798 30.3417 20.3042 29.5868 21.0379 28.6578C21.4047 28.1933 21.7276 27.6852 21.9917 27.1481C22.1238 27.0756 22.2558 26.9885 22.3732 26.9014L24.222 29.5288Z" fill="#FCFCFF"/>
<path d="M1.27344 24.4627C1.787 25.3192 2.46197 26.074 3.23966 26.6982C4.01735 27.3079 4.8831 27.7724 5.83687 28.0772C5.1619 27.1772 4.67767 26.1611 4.41355 25.0869C4.25215 24.4337 4.17878 23.7514 4.17878 23.0546C4.13476 22.9821 4.07605 22.9095 4.03203 22.8369L1.27344 24.4627Z" fill="#FCFCFF"/>
<path d="M1.47838 24.753C0.906119 23.9256 0.480598 23.0111 0.245824 22.053C0.0110507 21.095 -0.0623232 20.0934 0.0550636 19.0918L0.0843941 18.874L0.0990818 18.903C0.656669 19.9627 1.4197 20.8772 2.35879 21.603C2.82834 21.9659 3.34187 22.2853 3.88478 22.5466C3.95815 22.6772 4.04621 22.8079 4.13425 22.924L1.47838 24.753Z" fill="#FCFCFF"/>
<path d="M6.70248 1.83203C5.83675 2.3401 5.07372 3.00783 4.44277 3.77719C3.82649 4.54654 3.35697 5.403 3.04883 6.34655C3.95858 5.67881 4.98571 5.19977 6.07153 4.93848C6.73183 4.7788 7.42147 4.70622 8.12579 4.70622C8.19916 4.66267 8.27252 4.60461 8.34588 4.56106L6.70248 1.83203Z" fill="#FCFCFF"/>
<path d="M6.40918 2.03591C7.24556 1.46979 8.17 1.04882 9.13844 0.816565C10.1069 0.569791 11.1194 0.511719 12.1318 0.627848L12.3519 0.656887L12.3225 0.671395C11.2514 1.22301 10.327 1.97785 9.59331 2.90688C9.22648 3.3714 8.90368 3.87946 8.63956 4.41656C8.5075 4.48914 8.37542 4.57623 8.25804 4.66333L6.40918 2.03591Z" fill="#FCFCFF"/>
<path d="M29.7832 7.17408C29.2696 6.31763 28.5946 5.56279 27.8169 4.9386C27.0392 4.32892 26.1735 3.86441 25.2197 3.55957C25.8947 4.45957 26.3789 5.4757 26.643 6.54989C26.8044 7.20312 26.8778 7.88538 26.8778 8.58215C26.9218 8.65473 26.9805 8.72731 27.0246 8.79989L29.7832 7.17408Z" fill="#FCFCFF"/>
<path d="M29.5777 6.86914C30.15 7.69656 30.5755 8.61108 30.8103 9.56914C31.0451 10.5272 31.1184 11.5288 31.0011 12.5304L30.9717 12.7482L30.957 12.7191C30.3995 11.6595 29.6364 10.7449 28.6973 10.0191C28.2278 9.65623 27.7143 9.33688 27.1713 9.07559C27.098 8.94494 27.0099 8.81429 26.9219 8.69816L29.5777 6.86914Z" fill="#FCFCFF"/>
</svg>
